<svg id="SvgjsSvg1001" width="288" height="288" xmlns="http://www.w3.org/2000/svg" version="1.1" xmlns:xlink="http://www.w3.org/1999/xlink" xmlns:svgjs="http://svgjs.com/svgjs"><defs id="SvgjsDefs1002"></defs><g id="SvgjsG1008"><svg xmlns="http://www.w3.org/2000/svg" version="1.0" viewBox="0 0 900 900" width="288" height="288"><g fill="#ffffff" transform="matrix(.1 0 0 -.1 0 900)" class="color15661e svgShape"><path d="M4035 6542 c-23 -9 -57 -30 -78 -46 -34 -26 -37 -33 -37 -78 0 -28-7 -59 -16 -73 -10 -15 -14 -34 -10 -49 5 -20 14 -25 57 -31 29 -4 52 -13 55
-21 7 -24 14 -38 32 -69 17 -27 25 -31 88 -37 38 -4 85 -10 105 -13 23 -4 39
-3 43 4 4 6 24 11 45 11 20 0 46 7 57 15 10 8 31 15 46 15 18 0 34 10 49 31
19 28 25 30 58 24 108 -19 120 -18 156 9 18 14 40 26 47 26 8 0 23 7 34 15 25
19 54 19 54 0 0 -9 -18 -39 -39 -68 -21 -29 -49 -74 -61 -102 -21 -47 -22 -51
-6 -78 9 -16 16 -34 16 -41 0 -7 24 -29 53 -49 l53 -37 188 0 c143 0 195 3
223 15 19 8 50 15 67 15 17 0 44 7 60 15 15 8 40 15 55 15 15 0 36 7 47 15 10
8 28 15 40 15 11 0 29 7 40 15 10 8 29 15 42 15 12 0 48 14 79 30 31 17 64 30
73 30 10 0 23 7 30 15 7 8 21 15 31 15 16 0 61 19 121 51 37 19 49 13 113 -62
64 -76 95 -118 104 -142 6 -15 16 -27 24 -27 14 0 39 -27 58 -62 6 -13 15 -25
18 -28 4 -3 21 -35 39 -72 62 -130 30 -233 -88 -285 -60 -26 -239 -203 -205
-203 3 0 35 25 72 55 38 30 75 55 84 55 22 0 44 -35 53 -85 9 -44 41 -95 60
-95 8 0 31 -25 51 -55 21 -30 44 -55 52 -55 22 0 28 31 10 45 -21 15 -22 31
-1 39 22 8 21 9 44 -16 11 -12 20 -29 20 -39 0 -31 48 -124 76 -149 36 -32 91
-70 100 -70 14 0 94 -42 94 -48 0 -4 -14 -27 -30 -52 -16 -25 -30 -50 -30 -57
0 -6 -18 -25 -39 -42 -22 -18 -54 -53 -71 -79 -77 -118 -81 -122 -172 -162
-46 -20 -85 -60 -108 -110 -25 -56 -64 -110 -81 -110 -12 0 -78 -44 -79 -53 0
-10 90 2 105 13 6 5 21 10 34 12 19 2 33 19 58 67 40 78 48 88 95 117 38 24
102 32 113 15 3 -5 -14 -20 -37 -33 -58 -32 -59 -61 -3 -68 50 -6 54 -31 7
-41 -19 -4 -39 -12 -45 -18 -6 -6 -26 -11 -43 -11 -20 0 -51 -12 -77 -30 -25
-16 -48 -30 -53 -30 -4 0 -14 -7 -23 -15 -37 -34 -89 -75 -96 -75 -13 0 -170
-164 -220 -230 -110 -145 -155 -190 -196 -199 -53 -12 -134 4 -205 40 -52 27
-63 38 -72 68 -22 75 -23 100 -2 111 13 7 20 21 20 39 0 21 9 36 34 55 33 25
40 26 166 26 104 0 140 4 168 17 26 12 37 14 40 5 4 -13 28 -16 34 -4 2 4 29
24 61 46 31 21 57 41 57 45 0 3 16 17 35 30 26 17 33 27 25 35 -7 7 -16 7 -29
-1 -41 -26 -30 28 16 75 7 7 13 18 13 23 0 9 36 54 150 190 28 34 38 59 24 59
-23 0 -118 -68 -141 -101 -35 -50 -130 -149 -143 -149 -15 0 -12 26 5 40 8 7
15 24 15 38 0 14 7 33 16 43 31 34 -5 28 -60 -12 -61 -44 -76 -64 -76 -104 0
-25 -33 -64 -54 -65 -5 0 -18 8 -28 17 -18 16 -23 15 -99 -25 -94 -51 -107
-42 -64 41 32 63 65 154 65 182 0 12 5 26 11 32 10 10 10 32 -7 365 -5 106 -3
120 17 159 11 23 43 65 69 93 53 56 120 172 120 208 0 13 7 32 15 42 20 27 20
106 0 106 -8 0 -15 -8 -15 -19 0 -21 -37 -94 -86 -168 -19 -28 -34 -54 -34
-56 0 -5 -28 -40 -60 -76 -20 -22 -50 -68 -72 -111 -16 -30 -18 -64 -18 -286
0 -211 -2 -254 -15 -264 -8 -7 -15 -23 -15 -36 0 -15 -6 -24 -15 -24 -19 0
-19 13 -1 76 22 78 9 325 -20 371 -9 15 -12 37 -8 67 6 42 5 46 -15 46 -18 0
-21 6 -21 37 0 46 13 86 64 193 35 73 40 95 41 155 0 78 -21 136 -62 168 -23
18 -32 57 -13 57 6 0 10 5 10 10 0 17 -26 11 -45 -10 -20 -22 -19 -30 25 -140
32 -80 27 -124 -30 -245 -15 -33 -34 -76 -41 -95 -17 -44 -18 -175 -1 -192 6
-6 12 -24 12 -38 0 -14 7 -35 15 -46 22 -30 20 -153 -4 -181 -11 -13 -25 -23
-33 -23 -7 0 -23 -7 -35 -15 -40 -28 -32 0 14 45 39 40 44 49 40 80 -5 36 -63
130 -80 130 -6 0 -7 -28 -3 -69 7 -68 7 -69 -23 -90 -16 -12 -33 -21 -38 -21
-4 -1 -37 -18 -73 -40 l-65 -40 -22 28 c-12 15 -22 35 -23 44 0 20 -106 128
-125 128 -15 0 -168 146 -204 195 -39 53 -79 133 -105 214 -12 37 -19 95 -22
180 -2 74 -8 127 -14 129 -7 3 -10 -65 -10 -201 0 -170 3 -207 15 -217 8 -7
15 -19 15 -26 0 -8 20 -43 45 -80 25 -36 45 -71 45 -77 0 -7 14 -25 30 -41 30
-29 39 -60 21 -70 -8 -5 -53 39 -63 61 -1 4 -20 16 -40 27 -21 11 -38 27 -40
39 -3 24 -28 36 -28 14 0 -8 7 -20 15 -27 8 -7 15 -18 15 -24 0 -17 63 -138
85 -163 11 -13 26 -23 35 -23 8 0 24 -7 34 -15 11 -8 25 -15 32 -15 19 0 81
-61 89 -87 4 -14 0 -34 -11 -53 -14 -23 -16 -32 -6 -42 14 -14 16 -84 3 -92
-5 -3 -12 -23 -16 -43 -4 -21 -14 -46 -22 -55 -20 -22 -84 -24 -121 -4 -60 31
-82 39 -88 33 -10 -9 14 -35 39 -43 68 -19 96 -39 97 -66 0 -20 -5 -28 -18
-28 -10 0 -42 -9 -72 -19 -45 -16 -56 -24 -58 -45 -2 -14 -9 -26 -17 -26 -19
0 -75 -70 -76 -95 0 -11 -18 -35 -40 -54 -32 -27 -42 -31 -54 -21 -49 40 -175
281 -175 334 0 13 -7 43 -15 66 -12 35 -15 111 -15 419 -1 307 -3 381 -15 401
-8 14 -14 46 -15 72 0 26 -7 64 -16 85 -37 84 -63 139 -77 157 -14 19 -15 19
-26 -2 -14 -27 -6 -62 41 -187 33 -87 36 -481 3 -488 -6 -1 -12 31 -16 73 -3
41 -10 85 -17 97 -7 12 -12 44 -12 72 0 28 -4 51 -9 51 -9 0 -21 -72 -21 -129
0 -21 -5 -42 -11 -48 -17 -17 -18 -242 -1 -270 19 -34 17 -327 -3 -343 -8 -7
-15 -19 -15 -26 0 -9 -11 -14 -27 -14 -22 0 -34 10 -53 41 -14 23 -35 42 -50
46 -36 8 -80 42 -80 60 0 8 -6 27 -13 41 -8 15 -22 45 -32 67 -9 22 -21 47
-26 55 -21 36 -29 63 -23 86 3 13 10 24 15 24 5 0 14 10 19 23 11 25 32 59 41
67 14 12 28 74 22 101 -7 38 -56 79 -93 79 -16 0 -47 9 -70 21 -33 17 -38 24
-30 39 14 25 2 31 -31 15 -15 -8 -37 -15 -48 -15 -11 0 -25 -10 -32 -21 -10
-19 -7 -25 17 -45 16 -13 38 -24 49 -24 11 0 31 -7 45 -15 14 -8 39 -14 56
-15 36 0 80 -40 71 -64 -9 -22 -22 -20 -53 9 -33 30 -65 32 -89 5 -19 -21 -60
-27 -70 -10 -8 13 -123 90 -135 90 -4 0 -10 7 -14 15 -3 8 -12 15 -21 15 -21
0 -110 67 -156 116 -108 118 -113 150 -29 206 30 20 72 39 93 42 56 9 88 33
81 61 -3 12 0 42 6 65 10 38 9 46 -9 71 -12 16 -21 34 -21 42 0 7 -20 33 -45
57 -25 24 -45 50 -45 56 0 13 -56 64 -71 64 -18 0 -49 35 -49 56 0 32 60 64
120 64 27 0 61 5 76 10 28 11 84 -2 115 -27 8 -7 34 -13 58 -13 36 0 43 -4 52
-27 23 -61 57 -77 94 -45 38 31 55 66 55 109 0 23 5 45 10 48 6 3 10 23 10 44
0 30 -6 42 -25 55 -19 13 -25 25 -25 53 0 29 -8 44 -44 79 -38 38 -49 44 -86
44 -39 0 -109 -31 -118 -52 -2 -5 -10 -15 -18 -23 -13 -13 -18 -13 -39 1 -28
18 -45 12 -94 -40 -19 -20 -40 -36 -47 -36 -6 0 -17 -7 -24 -15 -7 -8 -23 -15
-35 -15 -12 0 -28 -7 -35 -15 -7 -8 -18 -15 -24 -15 -16 0 -87 -76 -109 -117
-9 -17 -17 -46 -17 -64 0 -35 49 -144 88 -196 28 -38 62 -102 62 -118 0 -17
-81 -85 -101 -85 -9 0 -19 9 -22 20 -3 11 -11 20 -17 20 -12 0 -9 -24 6 -63 3
-9 -7 -24 -26 -38 -67 -51 -200 -186 -200 -202 0 -10 -11 -22 -25 -27 -14 -5
-30 -21 -35 -34 -5 -13 -14 -27 -19 -31 -6 -3 -11 -14 -11 -24 0 -10 -7 -24
-15 -31 -8 -7 -15 -26 -15 -42 0 -16 -7 -45 -15 -64 -15 -37 -12 -111 5 -128
6 -6 10 -20 10 -32 0 -13 4 -25 9 -28 4 -3 11 26 15 65 3 39 13 81 21 92 8 12
15 35 15 52 0 37 52 141 94 188 37 42 134 109 147 101 11 -7 -19 -54 -35 -54
-29 0 -78 -101 -56 -115 6 -4 27 6 48 22 20 15 53 37 72 47 19 10 45 28 57 38
17 16 25 18 42 9 12 -7 21 -17 21 -24 0 -28 204 -217 235 -217 10 0 111 -65
151 -96 49 -40 58 -63 33 -95 -16 -21 -18 -22 -24 -6 -4 9 -12 17 -19 17 -6 1
-22 14 -36 30 -27 33 -40 38 -40 15 0 -8 7 -15 15 -15 8 0 15 -6 15 -12 1 -7
14 -24 30 -38 43 -35 40 -74 -7 -134 -29 -35 -45 -46 -67 -46 -21 0 -38 -10
-61 -37 -30 -35 -34 -37 -59 -25 -25 11 -26 11 -16 -8 5 -10 15 -22 20 -25 18
-11 11 -44 -20 -93 -29 -47 -30 -54 -30 -168 0 -142 20 -225 62 -258 15 -11
51 -42 79 -68 28 -27 59 -48 69 -48 9 0 44 -24 77 -54 33 -30 75 -58 94 -63
28 -8 35 -15 42 -45 7 -28 16 -39 38 -47 70 -24 121 15 134 103 4 27 14 61 21
75 19 35 18 37 -16 68 -26 23 -30 33 -30 79 0 50 -2 54 -45 89 -49 40 -60 40
-120 -1 -36 -24 -37 -24 -60 -6 -20 16 -30 17 -72 9 -60 -12 -98 3 -126 51
-18 30 -18 38 -7 75 8 23 20 49 27 58 7 8 13 20 13 25 1 5 18 28 40 52 l38 43
89 -3 c85 -3 88 -4 93 -28 3 -14 25 -47 50 -73 126 -135 184 -192 213 -207 18
-10 69 -55 115 -100 81 -80 82 -82 82 -131 0 -35 4 -51 15 -56 9 -3 23 -20 32
-37 9 -17 29 -46 44 -64 16 -18 29 -38 29 -45 0 -10 24 -65 76 -170 8 -16 14
-39 14 -52 0 -12 11 -53 25 -89 14 -37 25 -87 25 -112 0 -24 7 -61 16 -82 25
-57 31 -249 10 -289 -9 -18 -20 -63 -26 -102 -15 -109 -40 -176 -142 -386 -21
-42 -54 -87 -93 -124 -87 -85 -115 -117 -115 -133 0 -8 -14 -29 -31 -46 -24
-25 -40 -32 -69 -32 -33 0 -44 -7 -83 -50 -92 -102 -109 -176 -58 -252 16 -24
32 -53 35 -66 12 -38 42 -46 81 -23 27 15 52 20 116 20 76 0 86 3 125 31 48
34 79 38 122 13 33 -19 62 -12 62 15 0 29 30 49 85 57 36 5 59 15 82 37 36 35
57 34 117 -7 20 -14 43 -25 51 -25 7 0 25 25 40 55 17 36 32 55 43 55 10 0 35
9 57 20 22 11 46 20 54 20 7 0 36 -20 62 -45 50 -47 78 -55 99 -30 9 11 32 15
81 15 l69 0 0 45 c0 39 5 50 45 91 49 50 57 86 30 134 -8 14 -14 48 -15 76 0
28 -6 59 -15 70 -8 10 -15 24 -15 31 0 6 -16 35 -35 64 -19 30 -35 59 -35 66
0 6 -10 13 -22 15 -17 2 -25 13 -33 45 -5 23 -13 45 -17 49 -5 4 -8 24 -8 45
0 51 -8 69 -36 80 -14 5 -24 17 -24 28 0 10 -6 24 -14 30 -8 7 -17 23 -20 36
-4 14 -11 25 -16 25 -6 0 -10 22 -10 49 0 31 -6 55 -15 65 -8 8 -15 32 -15 53
0 22 -7 48 -15 59 -19 25 -19 91 0 110 21 22 21 196 0 214 -8 7 -15 23 -15 36
0 13 -10 32 -21 43 -16 15 -20 26 -15 46 13 51 121 192 263 344 43 47 55 54
69 45 10 -6 21 -17 25 -25 4 -8 15 -31 25 -52 24 -49 97 -126 149 -158 36 -22
53 -24 184 -28 l144 -3 65 33 c37 19 84 51 105 72 21 21 52 43 69 49 40 14
108 82 108 108 0 11 4 20 10 20 5 0 21 23 35 50 14 28 41 67 59 88 18 20 44
57 57 82 13 24 32 53 43 63 32 33 129 75 191 82 33 4 65 12 72 17 6 5 37 12
68 15 30 3 58 10 61 14 3 5 25 9 49 9 52 0 174 58 205 97 25 32 28 124 5 143
-8 7 -15 20 -15 29 0 22 -66 83 -113 104 -32 15 -38 21 -35 44 2 22 10 29 36
34 18 4 35 9 37 11 24 24 37 231 19 297 -14 51 -70 80 -156 81 -56 0 -71 4
-89 23 -32 33 -50 81 -42 117 11 59 -40 185 -92 224 -48 37 -90 55 -104 46
-18 -11 -62 2 -75 22 -7 13 -3 29 17 66 23 42 27 62 27 127 0 46 -6 88 -14
103 -7 15 -24 49 -37 75 -33 67 -46 89 -56 96 -5 3 -20 24 -33 46 -13 22 -27
42 -30 45 -16 14 -70 89 -70 98 0 5 -7 15 -15 22 -18 15 -20 30 -3 30 12 0
108 -99 108 -112 0 -4 21 -26 47 -50 26 -24 57 -53 69 -65 12 -13 24 -23 28
-23 20 0 -7 51 -109 206 -140 211 -162 229 -269 228 -57 0 -84 -6 -136 -31
-36 -16 -78 -33 -94 -37 -16 -4 -45 -18 -65 -32 -19 -13 -46 -24 -58 -24 -25
0 -92 -23 -136 -47 -25 -13 -30 -13 -52 1 -31 20 -82 21 -101 1 -9 -8 -30 -15
-48 -15 -19 0 -39 -7 -46 -15 -7 -8 -25 -15 -39 -15 -15 0 -36 -7 -47 -15 -10
-8 -28 -15 -40 -15 -11 0 -29 -7 -40 -15 -13 -10 -47 -14 -116 -15 -85 0 -98
2 -98 17 0 31 113 156 152 169 10 3 21 16 24 28 11 46 0 78 -37 108 -47 38
-175 60 -371 64 -91 2 -153 8 -183 19 -48 16 -146 19 -180 6 -23 -10 -47 1
-93 40 -39 34 -93 38 -157 11z m-265 -1782 c0 -13 -7 -20 -20 -20 -18 0 -19 3
-10 20 6 11 15 20 20 20 6 0 10 -9 10 -20z m1740 -263 c0 -13 -3 -27 -6 -30
-10 -10 -54 -120 -54 -135 0 -18 -25 -67 -63 -124 -38 -57 -61 -61 -101 -19
-15 16 -42 32 -59 35 -72 12 -98 19 -102 26 -9 14 58 93 111 133 57 42 230
134 257 136 12 1 17 -6 17 -22z m-1742 -35 c2 -24 -1 -32 -12 -32 -12 0 -16
10 -16 36 0 45 24 42 28 -4z m-88 -87 c0 -25 -23 -35 -35 -15 -10 16 2 40 20
40 9 0 15 -9 15 -25z m1463 -200 c20 -8 48 -15 62 -15 37 0 51 -39 22 -62 -34
-27 -57 -31 -76 -14 -49 44 -97 -5 -67 -68 9 -20 21 -36 26 -36 6 0 10 -6 10
-13 0 -7 -19 -17 -42 -23 -33 -7 -44 -14 -46 -31 -2 -13 -7 -23 -11 -23 -15 0
-81 -74 -81 -91 0 -20 -35 -44 -49 -34 -5 3 -12 19 -16 35 -4 16 -11 32 -16
35 -15 10 -10 52 6 59 11 4 14 13 9 30 -5 20 3 34 40 73 76 81 93 100 127 147
35 50 48 54 102 31z m204 -380 c9 -16 20 -37 25 -45 4 -8 12 -24 17 -36 5 -11
23 -35 40 -52 35 -34 38 -42 16 -42 -16 0 -115 97 -115 113 0 4 -9 20 -20 35
-22 30 -18 65 7 60 8 -2 21 -16 30 -33z m-467 -62 c0 -11 -67 -142 -81 -159
-6 -8 -17 -14 -23 -14 -17 0 -46 70 -46 112 0 29 5 37 33 51 33 16 117 23 117
10z m-195 -789 c14 -15 16 -41 11 -223 -2 -113 -10 -231 -16 -261 -16 -74 -40
-130 -56 -130 -16 0 -38 76 -29 99 4 9 11 77 15 151 8 132 28 342 36 368 5 17
19 15 39 -4z"></path><path d="M5366 5023 c-8 -8 -8 -100 0 -130 11 -42 24 -12 24 57 0 64 -8 89
-24 73z"></path></g></svg></g></svg>